<svg width="250" height="100" viewBox="0 0 493 280" fill="none" xmlns="http://www.w3.org/2000/svg">
<path d="M40.77 192.606L54.51 159.066L68.27 192.606H40.77ZM0 235.896H23.19L32.65 212.696H76.38L85.83 235.896H109.62L65.27 131.706H44.27L0 235.896Z" fill="#0F73EE"/>
<path d="M148.32 182.676V152.986H170.93C182.01 152.986 188.8 157.986 188.8 167.756V168.056C188.8 176.766 182.45 182.676 171.37 182.676H148.32ZM125.57 235.866H148.32V202.766H166.2L188.36 235.866H214.95L189.69 198.926C202.84 194.056 211.85 183.566 211.85 166.866V166.606C211.85 156.856 208.75 148.726 202.99 142.966C196.19 136.166 185.99 132.476 172.85 132.476H125.57V235.866Z" fill="#0F73EE"/>
<path d="M414.1 235.866H492.84V215.606H436.7V193.906H485.45V173.666H436.7V152.666H492.1V132.446H414.1V235.866ZM315.1 235.866H393.85V215.606H337.72V193.906H386.47V173.666H337.72V152.666H393.12V132.446H315.12L315.1 235.866ZM255.27 237.336C266.5 237.336 275.81 234.086 282.16 227.736C288.37 221.536 291.91 212.376 291.91 200.106V132.446H268.58V199.076C268.58 211.076 263.26 216.216 254.69 216.216C247.45 216.216 241.69 212.376 235.78 205.876L221.45 221.876C228.54 230.246 239.18 237.336 255.27 237.336Z" fill="#0F73EE"/>
<path d="M230.53 276.305C232.705 278.17 235.475 279.195 238.34 279.195C241.205 279.195 243.975 278.17 246.15 276.305C247.134 275.239 247.894 273.986 248.386 272.62C248.877 271.255 249.089 269.805 249.01 268.355V252.255H244.7V268.355C244.813 270.177 244.211 271.972 243.02 273.355C241.725 274.49 240.062 275.116 238.34 275.116C236.618 275.116 234.955 274.49 233.66 273.355C232.466 271.973 231.859 270.179 231.97 268.355V252.255H227.67V268.355C227.589 269.805 227.8 271.256 228.291 272.621C228.783 273.987 229.544 275.24 230.53 276.305ZM204.19 274.905C206.19 277.779 209.273 279.212 213.44 279.205C216.143 279.349 218.807 278.519 220.95 276.865C221.822 276.191 222.526 275.326 223.01 274.335C223.494 273.345 223.744 272.257 223.74 271.155C223.741 270.57 223.677 269.987 223.55 269.415C223.43 268.896 223.205 268.406 222.89 267.975C222.58 267.555 222.28 267.175 222 266.835C221.642 266.431 221.215 266.093 220.74 265.835L219.39 265.065C218.881 264.798 218.349 264.577 217.8 264.405L216.23 263.885C215.89 263.775 215.34 263.605 214.56 263.395L212.99 262.965C209.657 262.065 207.99 260.792 207.99 259.145C207.982 258.621 208.1 258.103 208.335 257.635C208.57 257.166 208.915 256.762 209.34 256.455C210.484 255.684 211.853 255.314 213.23 255.405C214.13 255.33 215.036 255.46 215.879 255.784C216.722 256.107 217.481 256.617 218.1 257.275C218.547 257.822 218.868 258.46 219.04 259.145H223.53C223.215 257.771 222.63 256.472 221.81 255.325C219.93 252.755 217.08 251.475 213.23 251.475C210.689 251.371 208.197 252.203 206.23 253.815C205.398 254.477 204.725 255.315 204.259 256.271C203.794 257.226 203.548 258.273 203.54 259.335C203.54 262.102 205.023 264.172 207.99 265.545C210.026 266.391 212.13 267.06 214.28 267.545C215.583 267.842 216.83 268.348 217.97 269.045C218.366 269.279 218.694 269.612 218.921 270.013C219.147 270.413 219.264 270.866 219.26 271.325C219.276 271.884 219.155 272.437 218.908 272.938C218.66 273.438 218.294 273.87 217.84 274.195C216.528 275.001 214.995 275.372 213.46 275.255C212.429 275.333 211.395 275.163 210.444 274.759C209.492 274.356 208.651 273.73 207.99 272.935C207.444 272.248 207.074 271.438 206.91 270.575H202.41C202.661 272.137 203.27 273.619 204.19 274.905ZM180.87 278.465V260.865L180.49 257.675H180.87L192.27 278.465H198.45V252.255H194.15V269.845L194.52 273.035H194.15L182.73 252.255H176.55V278.465H180.87ZM158.4 255.605C159.669 255.558 160.933 255.772 162.115 256.235C163.297 256.698 164.371 257.399 165.27 258.295C166.996 260.235 167.949 262.74 167.949 265.335C167.949 267.931 166.996 270.436 165.27 272.375C163.399 274.11 160.942 275.074 158.39 275.074C155.839 275.074 153.381 274.11 151.51 272.375C149.797 270.431 148.851 267.927 148.851 265.335C148.851 262.743 149.797 260.24 151.51 258.295C152.411 257.397 153.489 256.694 154.674 256.231C155.86 255.768 157.128 255.555 158.4 255.605V255.605ZM158.4 279.185C160.251 279.23 162.091 278.899 163.81 278.211C165.529 277.523 167.091 276.494 168.4 275.185C170.971 272.537 172.41 268.992 172.41 265.3C172.41 261.609 170.971 258.064 168.4 255.415C165.683 252.866 162.096 251.447 158.37 251.447C154.644 251.447 151.058 252.866 148.34 255.415C145.769 258.064 144.331 261.609 144.331 265.3C144.331 268.992 145.769 272.537 148.34 275.185C149.655 276.505 151.225 277.542 152.955 278.234C154.685 278.925 156.538 279.256 158.4 279.205V279.185ZM128.26 279.185C130.297 279.258 132.322 278.837 134.16 277.958C135.999 277.078 137.598 275.767 138.82 274.135C140.035 272.632 140.96 270.916 141.55 269.075H137.27C136.839 270.193 136.19 271.212 135.36 272.075C133.53 273.948 131.039 275.029 128.421 275.085C125.804 275.141 123.268 274.168 121.36 272.375C119.647 270.431 118.701 267.927 118.701 265.335C118.701 262.743 119.647 260.24 121.36 258.295C122.264 257.394 123.344 256.69 124.533 256.227C125.723 255.764 126.995 255.552 128.27 255.605C129.55 255.566 130.825 255.787 132.016 256.256C133.208 256.726 134.291 257.433 135.2 258.335C135.981 259.112 136.614 260.023 137.07 261.025H141.37C140.881 259.289 140.041 257.673 138.9 256.275C136.36 253.075 132.817 251.479 128.27 251.485C126.425 251.439 124.59 251.762 122.872 252.437C121.154 253.112 119.589 254.125 118.27 255.415C115.68 258.068 114.23 261.628 114.23 265.335C114.23 269.043 115.68 272.603 118.27 275.255C119.588 276.55 121.152 277.566 122.87 278.244C124.587 278.923 126.424 279.25 128.27 279.205L128.26 279.185Z" fill="#0F73EE"/>
<path d="M271.66 278.466V274.346H258.37V252.246H254.06V278.466H271.66Z" fill="#0F73EE"/>
<path d="M278.07 256.366V278.466H282.37V256.366H290.98V252.246H269.45V256.366H278.07Z" fill="#0F73EE"/>
<path d="M367.89 274.905C369.89 277.779 372.973 279.212 377.14 279.205C379.839 279.348 382.5 278.517 384.64 276.865C385.511 276.191 386.216 275.325 386.7 274.335C387.184 273.345 387.434 272.257 387.43 271.155C387.435 270.57 387.372 269.986 387.24 269.415C387.123 268.896 386.902 268.406 386.59 267.975C386.283 267.555 385.983 267.175 385.69 266.835C385.336 266.431 384.912 266.092 384.44 265.835L383.09 265.065C382.581 264.798 382.049 264.577 381.5 264.405L379.92 263.885C379.59 263.775 379.03 263.605 378.26 263.395L376.69 262.965C373.357 262.065 371.69 260.792 371.69 259.145C371.682 258.623 371.799 258.105 372.033 257.637C372.266 257.169 372.608 256.764 373.03 256.455C374.178 255.683 375.55 255.314 376.93 255.405C377.83 255.33 378.736 255.46 379.579 255.783C380.422 256.107 381.181 256.617 381.8 257.275C382.248 257.82 382.566 258.46 382.73 259.145H387.27C386.955 257.771 386.37 256.472 385.55 255.325C383.677 252.752 380.82 251.469 376.98 251.475C374.438 251.369 371.946 252.202 369.98 253.815C369.145 254.475 368.469 255.313 368.002 256.268C367.534 257.224 367.288 258.272 367.28 259.335C367.28 262.102 368.767 264.172 371.74 265.545C373.775 266.393 375.879 267.062 378.03 267.545C379.333 267.842 380.58 268.348 381.72 269.045C382.116 269.279 382.444 269.612 382.67 270.013C382.897 270.413 383.014 270.866 383.01 271.325C383.024 271.883 382.902 272.436 382.654 272.936C382.407 273.436 382.042 273.868 381.59 274.195C380.278 275.001 378.745 275.371 377.21 275.255C376.179 275.333 375.145 275.163 374.193 274.759C373.242 274.356 372.401 273.73 371.74 272.935C371.195 272.246 370.821 271.437 370.65 270.575H366.16C366.396 272.133 366.988 273.614 367.89 274.905ZM351.49 256.365V278.465H355.79V256.365H364.41V252.255H342.88V256.365H351.49ZM322.27 278.465V260.865L321.9 257.675H322.27L333.69 278.465H339.87V252.255H335.57V269.845L335.94 273.035H335.57L324.15 252.255H317.97V278.465H322.27ZM300.37 256.365H304.49L307.49 267.605H297.57L300.37 256.365ZM294.75 278.465L296.44 271.725H308.49L310.29 278.465H314.79L307.86 252.255H297.2L290.46 278.465H294.75Z" fill="#0F73EE"/>
<path d="M103.63 263.145C103.63 264.335 102.9 265.305 102.01 265.305H23.0099C22.1099 265.305 21.3799 264.305 21.3799 263.145C21.3799 261.985 22.1099 260.985 23.0099 260.985H102.01C102.9 260.985 103.63 261.955 103.63 263.145Z" fill="#0F73EE"/>
<path d="M479.14 263.145C479.14 264.335 478.41 265.305 477.51 265.305H398.56C397.66 265.305 396.93 264.305 396.93 263.145C396.93 261.985 397.66 260.985 398.56 260.985H477.51C478.41 260.985 479.14 261.955 479.14 263.145Z" fill="#0F73EE"/>
<path d="M491 113.865C491 114.131 490.895 114.385 490.707 114.573C490.52 114.76 490.265 114.865 490 114.865H35.48C35.2148 114.865 34.9604 114.76 34.7729 114.573C34.5853 114.385 34.48 114.131 34.48 113.865C34.48 113.6 34.5853 113.346 34.7729 113.158C34.9604 112.971 35.2148 112.865 35.48 112.865H490C490.265 112.865 490.52 112.971 490.707 113.158C490.895 113.346 491 113.6 491 113.865Z" fill="#0F73EE"/>
<path d="M491 113.865H490.27C490.27 113.895 490.264 113.925 490.253 113.952C490.241 113.979 490.224 114.004 490.202 114.025C490.181 114.045 490.155 114.061 490.127 114.072C490.1 114.082 490.07 114.087 490.04 114.085H35.4802C35.4218 114.085 35.3659 114.062 35.3246 114.021C35.2834 113.98 35.2602 113.924 35.2602 113.865C35.2588 113.836 35.2635 113.806 35.274 113.778C35.2844 113.75 35.3004 113.725 35.321 113.703C35.3415 113.682 35.3662 113.665 35.3936 113.653C35.421 113.641 35.4504 113.635 35.4802 113.635H490C490.061 113.635 490.12 113.66 490.163 113.703C490.206 113.746 490.23 113.804 490.23 113.865H491.77C491.77 113.395 491.584 112.944 491.252 112.61C490.921 112.277 490.471 112.088 490 112.085H35.4802C35.0324 112.119 34.6139 112.321 34.3086 112.65C34.0032 112.979 33.8335 113.411 33.8335 113.86C33.8335 114.309 34.0032 114.742 34.3086 115.071C34.6139 115.4 35.0324 115.602 35.4802 115.635H490C490.47 115.635 490.92 115.449 491.252 115.117C491.584 114.785 491.77 114.335 491.77 113.865H491Z" fill="#0F73EE"/>
<path d="M316.89 37.5255L252.27 0.22554C252.018 0.0778585 251.732 0 251.44 0C251.148 0 250.862 0.0778585 250.61 0.22554L186 37.5255C185.749 37.673 185.54 37.8832 185.394 38.1357C185.249 38.3882 185.172 38.6741 185.17 38.9655V113.526C185.17 113.967 185.344 114.39 185.656 114.703C185.967 115.016 186.389 115.193 186.83 115.196H188.5V103.866H194.76C194.979 103.866 195.195 103.822 195.397 103.738C195.6 103.654 195.783 103.531 195.937 103.376C196.092 103.221 196.214 103.036 196.296 102.834C196.379 102.631 196.421 102.414 196.42 102.196V66.5355L203.78 56.2455L211.73 66.6055V89.6055C211.73 90.0484 211.906 90.4732 212.219 90.7864C212.532 91.0996 212.957 91.2755 213.4 91.2755H224.27V102.156C224.27 102.598 224.446 103.023 224.759 103.336C225.072 103.65 225.497 103.826 225.94 103.826H231.27C231.709 103.824 232.13 103.647 232.44 103.336C232.596 103.182 232.72 102.998 232.805 102.795C232.889 102.593 232.931 102.375 232.93 102.156V79.1555H239.27V102.156C239.269 102.374 239.311 102.591 239.393 102.794C239.476 102.996 239.598 103.181 239.753 103.336C239.907 103.491 240.09 103.614 240.292 103.698C240.494 103.782 240.711 103.826 240.93 103.826H247.21C247.651 103.823 248.073 103.646 248.384 103.333C248.695 103.02 248.87 102.597 248.87 102.156V51.7755L259.54 62.7755V102.166C259.541 102.608 259.718 103.032 260.03 103.346C260.34 103.657 260.76 103.834 261.2 103.836H273.97C274.413 103.836 274.838 103.66 275.151 103.346C275.464 103.033 275.64 102.608 275.64 102.166V71.2855H287.27V81.2055C287.27 81.6356 287.436 82.049 287.735 82.3586C288.033 82.6683 288.44 82.85 288.87 82.8655L294.87 83.1055C295.094 83.1149 295.318 83.079 295.528 83C295.738 82.9209 295.93 82.8003 296.093 82.6453C296.255 82.4904 296.385 82.3043 296.474 82.0981C296.562 81.892 296.609 81.67 296.61 81.4455V55.8255L306.31 46.1255V102.196C306.309 102.414 306.351 102.631 306.433 102.834C306.516 103.036 306.638 103.221 306.793 103.376C306.947 103.531 307.13 103.654 307.332 103.738C307.534 103.822 307.751 103.866 307.97 103.866H314.36V111.866V115.196H316.04C316.259 115.196 316.475 115.152 316.677 115.068C316.88 114.984 317.063 114.861 317.217 114.706C317.372 114.551 317.494 114.366 317.576 114.164C317.659 113.961 317.701 113.744 317.7 113.526V38.9655C317.702 38.6757 317.629 38.3902 317.487 38.1376C317.345 37.885 317.139 37.6739 316.89 37.5255V37.5255ZM309.68 100.526V42.1055C309.68 41.7755 309.581 41.453 309.398 41.1786C309.214 40.9043 308.954 40.6905 308.649 40.5643C308.344 40.438 308.008 40.405 307.685 40.4693C307.361 40.5336 307.063 40.6923 306.83 40.9255L293.83 53.9255C293.518 54.239 293.341 54.663 293.34 55.1055V79.7055L290.64 79.6055V69.6055C290.64 69.3875 290.597 69.1717 290.514 68.9703C290.43 68.7689 290.308 68.5859 290.154 68.4317C290 68.2776 289.817 68.1553 289.615 68.0719C289.414 67.9885 289.198 67.9455 288.98 67.9455H273.98C273.758 67.9388 273.537 67.9768 273.329 68.0573C273.122 68.1377 272.933 68.2589 272.774 68.4137C272.614 68.5685 272.487 68.7538 272.401 68.9585C272.314 69.1632 272.27 69.3833 272.27 69.6055V100.526H262.81V62.1255C262.809 61.6928 262.64 61.2772 262.34 60.9655L248.34 46.4855C248.108 46.2501 247.812 46.0887 247.488 46.0218C247.165 45.9548 246.828 45.9854 246.522 46.1096C246.216 46.2338 245.954 46.446 245.768 46.7194C245.583 46.9928 245.482 47.3151 245.48 47.6455V100.526H242.54V77.6055C242.54 77.1626 242.364 76.7379 242.051 76.4247C241.738 76.1115 241.313 75.9355 240.87 75.9355H231.27C230.827 75.9355 230.402 76.1115 230.089 76.4247C229.776 76.7379 229.6 77.1626 229.6 77.6055V100.606H227.6V89.6055C227.6 89.1647 227.428 88.7412 227.12 88.4255C226.805 88.1159 226.381 87.9433 225.94 87.9455H215.06V65.9455C215.059 65.5841 214.939 65.233 214.72 64.9455L205.06 52.3955C204.904 52.1885 204.703 52.0205 204.471 51.9048C204.239 51.7891 203.984 51.7289 203.725 51.7289C203.466 51.7289 203.211 51.7891 202.979 51.9048C202.747 52.0205 202.546 52.1885 202.39 52.3955L193.39 64.9455C193.183 65.2376 193.075 65.5878 193.08 65.9455V98.4855V100.486H188.47V39.8855L251.45 3.60554L314.39 39.9455V100.546L309.68 100.526Z" fill="#0F73EE"/>
</svg>
