<svg width="368" height="367" viewBox="0 0 368 367" fill="none" xmlns="http://www.w3.org/2000/svg">
<path d="M290.559 366.977C300.265 367.019 309.934 365.756 319.303 363.222C330.205 360.166 339.5 353.005 345.234 343.242L363.912 312.198C369.862 302.314 366.981 289.498 357.374 283.111L283.091 233.573C273.664 227.337 261.028 229.389 254.059 238.288L232.421 266.109C229.64 269.776 224.585 270.839 220.562 268.604L216.446 266.335C202.802 258.898 185.824 249.639 151.618 215.421C117.412 181.203 108.134 164.213 100.698 150.593L98.4408 146.477C96.1758 142.455 97.2188 137.378 100.887 134.576L128.69 112.944C137.586 105.974 139.64 93.3421 133.411 83.9121L83.8728 9.62908C77.4878 0.0270834 64.6808 -2.85492 54.7978 3.08508L23.7368 21.7441C13.9768 27.4821 6.81581 36.7751 3.75681 47.6751C-7.42918 88.4311 0.986816 158.769 104.601 262.396C187.024 344.813 248.384 366.977 290.559 366.977ZM15.5538 50.9101C17.7878 43.0491 22.9748 36.3561 30.0298 32.2321L61.0918 13.5971C65.3798 11.0171 70.9388 12.2671 73.7088 16.4351L100.619 56.8361L123.205 90.7121C125.91 94.8021 125.021 100.285 121.162 103.311L93.3528 124.943C84.8898 131.414 82.4738 143.123 87.6838 152.415L89.8918 156.427C97.7078 170.763 107.426 188.596 142.904 224.068C178.382 259.54 196.21 269.258 210.539 277.074L214.557 279.288C223.849 284.498 235.559 282.081 242.029 273.619L263.661 245.81C266.689 241.954 272.169 241.065 276.26 243.767L350.537 293.305C354.707 296.073 355.958 301.635 353.375 305.922L334.74 336.984C330.622 344.031 323.938 349.212 316.087 351.442C278.462 361.772 212.729 353.216 113.255 253.741C13.7808 154.266 5.22382 88.5411 15.5538 50.9101Z" fill="#EB4D37"/>
</svg>
