<svg width="668.6" height="478.1" viewBox="0 0 250 100" fill="none" xmlns="http://www.w3.org/2000/svg">
<path d="M233.271 87.5012C238.847 87.5012 243.309 86.2978 246.657 83.891C248.175 82.8186 249.31 81.593 250 80.2809H245.7C245.137 81.1903 244.277 82.0335 243.165 82.7678C241.943 83.5614 240.422 84.1938 238.712 84.6194C237.001 85.0451 235.143 85.2535 233.271 85.2297C229.415 85.2297 226.26 84.5255 223.807 83.1171C221.354 81.7087 220.127 79.8723 220.124 77.6078C220.124 75.3446 221.352 73.5089 223.807 72.1005C226.263 70.6921 229.417 69.988 233.271 69.988C237.19 69.988 240.408 70.7451 242.926 72.2595C243.998 72.9303 244.855 73.6994 245.461 74.5331H249.764C249.135 73.2929 248.061 72.1373 246.609 71.1363C243.368 68.8536 238.922 67.713 233.271 67.7144C228.233 67.7144 224.066 68.6458 220.771 70.5088C217.476 72.3717 215.827 74.738 215.824 77.6078C215.824 80.4775 217.473 82.8438 220.771 84.7067C224.069 86.5697 228.236 87.5012 233.271 87.5012ZM207.471 86.9678V68.2498H203.156V86.9678H207.471ZM180.698 70.5213V86.9678H185.002V70.5213H196.448V68.2498H169.216V70.5213H180.698ZM147.704 87.5012C153.283 87.5012 157.745 86.2978 161.09 83.891C162.609 82.8186 163.745 81.593 164.437 80.2809H160.133C159.571 81.1902 158.713 82.0334 157.602 82.7678C156.379 83.5616 154.858 84.194 153.147 84.6197C151.435 85.0454 149.577 85.2537 147.704 85.2297C143.85 85.2297 140.696 84.5255 138.24 83.1171C135.785 81.7087 134.559 79.8723 134.561 77.6078C134.561 75.3446 135.787 73.5089 138.24 72.1005C140.693 70.6921 143.848 69.988 147.704 69.988C151.628 69.988 154.847 70.7451 157.362 72.2595C158.432 72.9309 159.288 73.6999 159.894 74.5331H164.198C163.569 73.2926 162.496 72.1368 161.042 71.1363C157.801 68.8536 153.355 67.713 147.704 67.7144C142.671 67.7144 138.505 68.6458 135.204 70.5088C131.904 72.3717 130.257 74.738 130.265 77.6078C130.265 80.4775 131.914 82.8438 135.212 84.7067C138.51 86.5697 142.674 87.5012 147.704 87.5012ZM123.803 86.9678V84.6942H104.685V78.6766H120.221V76.4051H104.685V70.5213H123.803V68.2498H100.381V86.9678H123.803ZM93.9276 86.9678V84.6942H76.4807V68.2498H72.1807V86.9678H93.9276ZM47.3228 87.5012C52.8966 87.5012 57.3574 86.2978 60.7052 83.891C62.2252 82.8191 63.3615 81.5934 64.0518 80.2809H59.7517C59.1869 81.1899 58.3275 82.0329 57.2166 82.7678C55.9948 83.5614 54.474 84.1938 52.7633 84.6194C51.0526 85.0451 49.1946 85.2535 47.3228 85.2297C43.4689 85.2297 40.3143 84.5255 37.859 83.1171C35.4036 81.7087 34.1734 79.8723 34.1684 77.6078C34.1684 75.3446 35.3961 73.5089 37.8515 72.1005C40.3069 70.6921 43.4615 69.988 47.3153 69.988C51.2339 69.988 54.4521 70.7451 56.9698 72.2595C58.042 72.9303 58.8996 73.6994 59.5049 74.5331H63.805C63.1765 73.293 62.1041 72.1374 60.6529 71.1363C57.3998 68.8536 52.9539 67.713 47.3153 67.7144C42.2774 67.7144 38.1107 68.6458 34.8153 70.5088C31.5199 72.3717 29.8734 74.738 29.8759 77.6078C29.8759 80.4775 31.5248 82.8438 34.8228 84.7067C38.1207 86.5697 42.2874 87.5012 47.3228 87.5012ZM23.4221 86.9678V84.6942H4.30003V78.6766H19.8362V76.4051H4.30003V70.5213H23.4221V68.2498H0V86.9678H23.4221Z" fill="black"/>
<path d="M188.741 94.2825H192.222C192.97 94.2521 193.711 94.3764 194.305 94.6318C194.759 94.8995 195.012 95.2543 195.012 95.6232C195.012 95.9921 194.759 96.3469 194.305 96.6146C193.712 96.8717 192.97 96.9968 192.222 96.966H188.741V94.2825ZM188.741 99.8232V97.4785H192.069L194.776 99.8169H195.939L193.153 97.4367C193.968 97.3826 194.719 97.1639 195.266 96.8217C195.771 96.485 196.037 96.0562 196.014 95.6169C196.03 95.3648 195.947 95.1138 195.771 94.8815C195.596 94.6492 195.331 94.4412 194.997 94.272C194.222 93.9084 193.228 93.7236 192.219 93.7554H187.732V99.8211L188.741 99.8232ZM179.221 94.1089C179.831 94.098 180.438 94.1586 181.004 94.2868C181.569 94.4151 182.08 94.6081 182.504 94.8535C183.332 95.3939 183.786 96.082 183.786 96.7935C183.786 97.505 183.332 98.193 182.504 98.7335C181.625 99.2109 180.447 99.4778 179.221 99.4778C177.996 99.4778 176.818 99.2109 175.938 98.7335C175.111 98.193 174.656 97.505 174.656 96.7935C174.656 96.082 175.111 95.3939 175.938 94.8535C176.362 94.6081 176.874 94.4151 177.439 94.2868C178.004 94.1586 178.611 94.098 179.221 94.1089V94.1089ZM179.221 99.9968C179.961 100.007 180.696 99.9321 181.381 99.7755C182.066 99.6189 182.685 99.3844 183.2 99.087C184.225 98.4604 184.793 97.6418 184.793 96.7924C184.793 95.9431 184.225 95.1245 183.2 94.4979C182.137 93.9159 180.709 93.5899 179.221 93.5899C177.734 93.5899 176.306 93.9159 175.243 94.4979C174.218 95.1245 173.649 95.9431 173.649 96.7924C173.649 97.6418 174.218 98.4604 175.243 99.087C175.759 99.3829 176.378 99.6158 177.063 99.771C177.748 99.9262 178.483 100 179.221 99.9884V99.9968ZM166.063 99.9968C166.887 100.011 167.705 99.9142 168.449 99.7151C169.192 99.5161 169.84 99.2204 170.337 98.8527C170.824 98.5119 171.187 98.1211 171.406 97.7023H170.397C170.198 98.0275 169.894 98.3295 169.5 98.5933C169.086 98.8783 168.562 99.1063 167.966 99.2597C167.37 99.4132 166.719 99.4879 166.063 99.4781C165.456 99.4881 164.851 99.427 164.289 99.2988C163.726 99.1706 163.217 98.978 162.795 98.7335C161.965 98.1938 161.508 97.5054 161.508 96.7935C161.508 96.0815 161.965 95.3932 162.795 94.8535C163.238 94.6108 163.763 94.42 164.34 94.2923C164.916 94.1646 165.532 94.1025 166.152 94.1097C166.772 94.1169 167.383 94.1933 167.95 94.3343C168.516 94.4753 169.026 94.6781 169.451 94.9309C169.832 95.1726 170.131 95.4512 170.333 95.7529H171.339C171.121 95.3583 170.768 94.9911 170.3 94.6715C169.792 94.3215 169.146 94.0418 168.413 93.8542C167.68 93.6667 166.88 93.5763 166.074 93.5902C165.335 93.5793 164.6 93.6544 163.915 93.8107C163.23 93.9669 162.611 94.2009 162.096 94.4979C161.071 95.1245 160.502 95.9431 160.502 96.7924C160.502 97.6418 161.071 98.4604 162.096 99.087C162.611 99.382 163.229 99.6144 163.911 99.7696C164.594 99.9247 165.327 99.9992 166.063 99.9884V99.9968ZM158.248 99.8232V99.3045H151.892V97.0037H157.074V96.4829H151.903V94.2825H158.26V93.7617H150.893V99.8274L158.248 99.8232ZM139.986 94.2825H142.387C142.992 94.2689 143.596 94.3239 144.162 94.4443C144.728 94.5648 145.245 94.7481 145.681 94.9832C146.498 95.4747 146.953 96.1211 146.953 96.7924C146.953 97.4637 146.498 98.1102 145.681 98.6017C145.245 98.8372 144.729 99.0209 144.163 99.1417C143.596 99.2624 142.992 99.3178 142.387 99.3045H139.986V94.2825ZM142.387 99.8232C143.123 99.8376 143.857 99.7686 144.544 99.6205C145.232 99.4725 145.859 99.2483 146.388 98.9615C147.395 98.38 147.959 97.6021 147.959 96.7924C147.959 95.9827 147.395 95.2048 146.388 94.6234C145.858 94.337 145.231 94.1131 144.544 93.965C143.857 93.817 143.123 93.7478 142.387 93.7617H138.977V99.8274L142.387 99.8232ZM125.127 96.1859C125.497 96.182 125.865 96.2217 126.207 96.3024C126.548 96.3831 126.855 96.503 127.109 96.6544C127.626 96.9783 127.912 97.3976 127.912 97.832C127.912 98.2664 127.626 98.6856 127.109 99.0096C126.851 99.1578 126.543 99.2757 126.203 99.3562C125.862 99.4366 125.496 99.4781 125.127 99.4781C124.757 99.4781 124.392 99.4366 124.051 99.3562C123.711 99.2757 123.403 99.1578 123.145 99.0096C122.628 98.6856 122.342 98.2664 122.342 97.832C122.342 97.3976 122.628 96.9783 123.145 96.6544C123.398 96.5031 123.704 96.3832 124.045 96.3025C124.386 96.2218 124.753 96.182 125.123 96.1859H125.127ZM125.127 99.9968C125.608 100.006 126.088 99.9612 126.538 99.8645C126.988 99.7679 127.398 99.6215 127.744 99.4342C128.081 99.2567 128.347 99.0419 128.526 98.8034C128.705 98.5649 128.793 98.3081 128.784 98.0495V98.0495L128.877 98.1353L130.859 99.8232H132.018L125.516 94.2909H130.377V93.77H124.349V94.2909L126.036 95.7194L126.129 95.7968C126.022 95.7826 125.918 95.7622 125.819 95.7362C125.568 95.6918 125.307 95.6685 125.045 95.6671C124.544 95.6625 124.047 95.7159 123.585 95.8239C123.123 95.9319 122.706 96.0921 122.36 96.2946C121.817 96.5987 121.447 96.9863 121.299 97.408C121.15 97.8298 121.228 98.2668 121.525 98.6635C121.821 99.0602 122.321 99.3988 122.962 99.6362C123.602 99.8736 124.355 99.9991 125.123 99.9968H125.127ZM106.166 99.8232V94.4122V94.3243L112.047 99.8232H113.595V93.7575H112.59V99.1706V99.2564L106.708 93.7617H105.16V99.8274L106.166 99.8232ZM96.0251 99.9968C97.3648 100.019 98.6665 99.7459 99.6483 99.2355C100.642 98.7007 101.275 97.9908 101.443 97.2254H102.838V96.7067H98.2648V97.2254H100.434C100.334 97.8407 99.8291 98.4134 99.0164 98.8318C98.2107 99.2595 97.1356 99.4918 96.0251 99.4781C95.4158 99.489 94.8093 99.4284 94.2444 99.3001C93.6796 99.1719 93.1691 98.9788 92.7458 98.7335C91.9157 98.1938 91.4591 97.5054 91.4591 96.7935C91.4591 96.0815 91.9157 95.3932 92.7458 94.8535C93.1857 94.6121 93.7069 94.422 94.2792 94.2943C94.8515 94.1665 95.4634 94.1036 96.0795 94.1092C96.6956 94.1149 97.3036 94.1889 97.8681 94.3271C98.4326 94.4653 98.9424 94.6648 99.3679 94.9142C99.7511 95.1491 100.061 95.4185 100.284 95.7111H101.29C101.048 95.3296 100.685 94.9754 100.22 94.6653C99.7171 94.3176 99.0759 94.0404 98.3477 93.8556C97.6194 93.6708 96.8242 93.5835 96.0251 93.6006C95.2858 93.5898 94.5505 93.6649 93.8657 93.8211C93.1809 93.9774 92.5615 94.2114 92.0466 94.5084C91.0216 95.135 90.4531 95.9536 90.4531 96.8029C90.4531 97.6522 91.0216 98.4708 92.0466 99.0974C92.5636 99.3911 93.1836 99.6219 93.8676 99.7752C94.5516 99.9285 95.2848 100.001 96.0213 99.9884L96.0251 99.9968ZM87.511 99.8232V93.7575H86.5164V99.8232H87.511ZM75.9795 99.1141C76.8046 99.7012 77.9911 99.9954 79.5391 99.9968C80.5938 100.028 81.6338 99.8482 82.4744 99.4906C82.8129 99.3472 83.0876 99.162 83.277 98.9493C83.4664 98.7367 83.5653 98.5025 83.5662 98.2649C83.5699 98.0738 83.4984 97.8846 83.3568 97.7107C83.2341 97.5566 83.066 97.4152 82.8595 97.2923C82.6234 97.1656 82.355 97.0592 82.0631 96.9765C81.7698 96.8887 81.4677 96.8105 81.1582 96.7422C80.8965 96.6879 80.5525 96.623 80.1299 96.5477C79.4473 96.4451 78.7756 96.3208 78.1183 96.1754C77.1561 95.9453 76.6762 95.6309 76.6787 95.2321C76.6772 95.0768 76.7407 94.9235 76.8641 94.7844C76.9874 94.6453 77.1672 94.5243 77.3891 94.431C77.9677 94.1971 78.6733 94.0825 79.3858 94.1068C79.854 94.092 80.3225 94.133 80.7602 94.2271C81.1979 94.3212 81.5948 94.4663 81.9247 94.6527C82.1803 94.8054 82.3708 94.9884 82.4819 95.1882H83.4877C83.3608 94.8967 83.118 94.625 82.7773 94.3933C81.9821 93.8565 80.8516 93.5881 79.3858 93.5881C78.4135 93.5618 77.4572 93.7335 76.6936 94.0712C76.3774 94.2088 76.1211 94.3848 75.9443 94.5859C75.7674 94.787 75.6746 95.008 75.6729 95.2321C75.6673 95.4226 75.7349 95.6117 75.871 95.7864C75.9908 95.9423 76.1621 96.0842 76.3758 96.2047C76.6141 96.3276 76.8822 96.4312 77.1723 96.5122C77.4679 96.5984 77.7726 96.6745 78.0846 96.7401C78.3651 96.7987 78.7091 96.8594 79.1241 96.9221C79.2176 96.941 79.4008 96.9744 79.6812 97.0225L80.2533 97.1229C80.3543 97.1396 80.5263 97.1731 80.7656 97.2212C80.9363 97.2552 81.1035 97.2943 81.2666 97.3384L81.6779 97.4639C81.8173 97.5041 81.9437 97.5571 82.0519 97.6207C82.1432 97.677 82.2281 97.7363 82.3061 97.7985C82.395 97.8604 82.4611 97.9315 82.5006 98.0077C82.5394 98.0895 82.5583 98.174 82.5566 98.2587C82.5586 98.4273 82.4887 98.5939 82.3529 98.7444C82.217 98.895 82.0189 99.0253 81.7752 99.1246C81.1184 99.3782 80.328 99.5005 79.5317 99.4718C79.0303 99.484 78.5304 99.434 78.0676 99.3256C77.6048 99.2171 77.1905 99.0528 76.8544 98.8443C76.5623 98.6626 76.3408 98.4489 76.2038 98.2168H75.198C75.3492 98.5416 75.6135 98.8466 75.9757 99.1141H75.9795ZM73.0554 99.8232V99.3045H66.6989V97.0037H71.8813V96.4829H66.6989V94.2825H73.0554V93.7617H65.6818V99.8274L73.0554 99.8232ZM54.771 94.2825H57.1715C57.7767 94.2689 58.3806 94.3239 58.9467 94.4443C59.5129 94.5648 60.0296 94.7481 60.4657 94.9832C61.2831 95.4747 61.7375 96.1211 61.7375 96.7924C61.7375 97.4637 61.2831 98.1102 60.4657 98.6017C60.0299 98.8372 59.5133 99.0209 58.9472 99.1417C58.381 99.2624 57.777 99.3178 57.1715 99.3045H54.771V94.2825ZM57.1715 99.8232C57.9077 99.8376 58.6416 99.7686 59.329 99.6205C60.0165 99.4725 60.6435 99.2483 61.1724 98.9615C62.1798 98.38 62.7431 97.6021 62.7431 96.7924C62.7431 95.9827 62.1798 95.2048 61.1724 94.6234C60.643 94.337 60.0159 94.1131 59.3286 93.965C58.6412 93.817 57.9076 93.7478 57.1715 93.7617H53.7651V99.8274L57.1715 99.8232Z" fill="black"/>
<path d="M130.867 30.2783V59.5193H159.4V39.5233L130.867 30.2783Z" fill="#718138"/>
<path d="M97.3865 5.48844L132.755 0V30.4353L96.8145 35.4092L97.3865 5.48844Z" fill="#718138"/>
<path d="M160.077 14.7082L132.62 5.48828L131.271 6.74326L158.727 15.9632" fill="black"/>
<path d="M146.437 5.99902V59.5196H149.054V5.99902" fill="black"/>
<path d="M148.388 48.3984L134.871 44.1294V59.1557H137.489V46.6373L147.102 49.6722L148.388 48.3984Z" fill="black"/>
<path d="M80.9077 19.5273V59.5193H83.5251V19.5273" fill="black"/>
<path d="M73.3883 40.2284L131.222 31.1402L130.511 29.7305L72.6816 38.8186" fill="black"/>
<path d="M60.0845 60.2512H190.394V58.7871H60.0845" fill="black"/>
<path d="M160.709 38.8518L132.639 29.9729V5.48828L91.4409 11.8657L92.1401 13.2775L130.022 7.41258V29.1467V30.8284L135.641 32.6062L158.091 39.7073V59.1553H160.709V38.8518Z" fill="black"/>
</svg>
