<svg width="243" height="347" viewBox="0 0 243 347" fill="none" xmlns="http://www.w3.org/2000/svg">
<path d="M122.423 75.9033C98.0145 75.9033 78.1465 95.7713 78.1465 120.18C78.1465 144.589 98.0145 164.457 122.423 164.457C146.832 164.457 166.7 144.589 166.7 120.18C166.7 95.7713 146.832 75.9033 122.423 75.9033ZM122.423 151.806C104.984 151.806 90.7975 137.618 90.7975 120.18C90.7975 102.742 104.985 88.5543 122.423 88.5543C139.861 88.5543 154.049 102.742 154.049 120.18C154.049 137.618 139.862 151.806 122.423 151.806Z" fill="#EB4D37"/>
<path d="M207.074 35.529C184.164 12.619 153.701 0 121.303 0C88.8987 0 58.4417 12.619 35.5317 35.529C-6.86628 77.921 -12.1353 157.683 24.1207 206.008L121.302 346.353L218.338 206.204C254.741 157.682 249.472 77.921 207.074 35.529ZM208.08 198.809L121.303 324.126L34.3867 198.614C1.50272 154.766 6.21472 82.734 44.4827 44.473C65.0017 23.954 92.2827 12.651 121.303 12.651C150.323 12.651 177.604 23.954 198.13 44.473C236.398 82.734 241.11 154.766 208.08 198.809Z" fill="#EB4D37"/>
</svg>
