<?xml version="1.0" encoding="utf-8"?>
<!-- Generator: Adobe Illustrator 17.0.0, SVG Export Plug-In . SVG Version: 6.00 Build 0)  -->
<!DOCTYPE svg PUBLIC "-//W3C//DTD SVG 1.1//EN" "http://www.w3.org/Graphics/SVG/1.1/DTD/svg11.dtd">
<svg version="1.1" id="Layer_1" xmlns="http://www.w3.org/2000/svg" xmlns:xlink="http://www.w3.org/1999/xlink" x="0px" y="0px"
	 width="250px" height="100px" viewBox="0 0 500 253.023" enable-background="new 0 0 500 253.023" xml:space="preserve">
<g>
	<g>
		<g>
			<path fill="#C67B22" d="M190.536,56.349V55.48l1.124-0.193v-7.911l-1.124-0.193v-0.876h3.608v0.876l-1.124,0.193v7.911
				l1.124,0.193v0.869H190.536z M192.923,53.445l-0.724-0.841l4.766-5.291l0.028-0.034l-0.752-0.097v-0.876h3.221v0.876
				l-0.945,0.172L192.923,53.445z M196.468,56.349V55.48l0.828-0.097l-0.007-0.007l-2.779-3.855l0.759-1.069l3.628,4.856
				l0.925,0.172v0.869H196.468z"/>
			<path fill="#C67B22" d="M203.715,56.349V55.48l1.124-0.193v-7.911l-1.124-0.193v-0.876h3.608v0.876l-1.124,0.193v3.469h4.801
				v-3.469l-1.124-0.193v-0.876h1.124h1.359h1.124v0.876l-1.124,0.193v7.911l1.124,0.193v0.869h-3.608V55.48l1.124-0.193v-3.373
				h-4.801v3.373l1.124,0.193v0.869H203.715z"/>
			<path fill="#C67B22" d="M217.348,56.349V55.48l0.745-0.104l3.51-9.07h1.166l3.449,9.07l0.738,0.104v0.869h-2.883V55.48
				l0.759-0.131L224.17,53.5h-4.022l-0.682,1.849l0.759,0.131v0.869H217.348z M220.57,52.362h3.186l-1.476-4.084l-0.082-0.227
				h-0.041l-0.083,0.227L220.57,52.362z"/>
			<path fill="#C67B22" d="M231.644,56.349V55.48l1.124-0.193v-7.953h-2.276l-0.2,1.393h-1.021v-2.421h8.346v2.421h-1.007
				l-0.207-1.393h-2.277v7.953l1.124,0.193v0.869H231.644z"/>
			<path fill="#C67B22" d="M241.691,56.349V55.48l1.124-0.193v-7.911l-1.124-0.193v-0.876h3.608v0.876l-1.124,0.193v7.911
				l1.124,0.193v0.869H241.691z"/>
			<path fill="#C67B22" d="M249.241,56.349V55.48l1.124-0.193v-7.911l-1.124-0.193v-0.876h1.124h3.207
				c1.049,0,1.868,0.227,2.459,0.679c0.591,0.453,0.887,1.132,0.887,2.038c0,0.446-0.142,0.845-0.424,1.197
				c-0.283,0.352-0.657,0.613-1.121,0.783c0.404,0.083,0.752,0.245,1.041,0.486s0.514,0.536,0.672,0.883s0.238,0.728,0.238,1.142
				c0,0.92-0.299,1.622-0.897,2.107c-0.598,0.485-1.407,0.728-2.428,0.728H249.241z M251.725,50.576h2.2
				c0.488,0,0.882-0.141,1.183-0.424c0.302-0.283,0.452-0.668,0.452-1.155c0-0.542-0.17-0.948-0.511-1.217
				c-0.34-0.269-0.832-0.403-1.476-0.403h-1.848V50.576z M251.725,55.287h2.276c0.621,0,1.102-0.153,1.445-0.459
				c0.342-0.306,0.514-0.739,0.514-1.3c0-0.395-0.063-0.733-0.19-1.014c-0.127-0.28-0.32-0.497-0.579-0.648
				c-0.26-0.152-0.588-0.227-0.983-0.227h-2.483V55.287z"/>
			<path fill="#C67B22" d="M267.521,56.349V55.48l1.124-0.193v-7.911l-1.124-0.193v-0.876h1.124h3.207
				c1.048,0,1.868,0.227,2.459,0.679c0.591,0.453,0.887,1.132,0.887,2.038c0,0.446-0.142,0.845-0.424,1.197
				c-0.283,0.352-0.657,0.613-1.121,0.783c0.404,0.083,0.752,0.245,1.041,0.486s0.514,0.536,0.672,0.883
				c0.159,0.347,0.238,0.728,0.238,1.142c0,0.92-0.299,1.622-0.897,2.107c-0.598,0.485-1.407,0.728-2.428,0.728H267.521z
				 M270.004,50.576h2.2c0.488,0,0.882-0.141,1.183-0.424c0.302-0.283,0.452-0.668,0.452-1.155c0-0.542-0.17-0.948-0.511-1.217
				c-0.34-0.269-0.832-0.403-1.476-0.403h-1.848V50.576z M270.004,55.287h2.276c0.621,0,1.102-0.153,1.445-0.459
				c0.342-0.306,0.514-0.739,0.514-1.3c0-0.395-0.063-0.733-0.19-1.014c-0.127-0.28-0.32-0.497-0.579-0.648
				c-0.26-0.152-0.588-0.227-0.983-0.227h-2.483V55.287z"/>
			<path fill="#C67B22" d="M279.465,56.349V55.48l1.124-0.193v-7.911l-1.124-0.193v-0.869h4.477c0.731,0,1.348,0.109,1.852,0.328
				c0.504,0.218,0.887,0.534,1.149,0.948c0.262,0.414,0.393,0.92,0.393,1.517c0,0.589-0.128,1.083-0.383,1.483
				c-0.255,0.4-0.618,0.703-1.086,0.907c-0.469,0.205-1.025,0.314-1.669,0.328l-2.249,0.041v3.421l1.124,0.193v0.869H279.465z
				 M281.948,50.796h1.855c0.759,0,1.31-0.145,1.656-0.435c0.345-0.29,0.517-0.713,0.517-1.269c0-0.529-0.166-0.947-0.496-1.255
				c-0.331-0.308-0.844-0.462-1.538-0.462h-1.993V50.796z M286.093,56.349l-2.235-5.014l1.359-0.014l1.855,4.015l0.697,0.124v0.89
				H286.093z"/>
			<path fill="#C67B22" d="M291.843,56.349V55.48l1.124-0.193v-7.911l-1.124-0.193v-0.876h3.608v0.876l-1.124,0.193v7.911
				l1.124,0.193v0.869H291.843z"/>
			<path fill="#C67B22" d="M301.884,56.349V55.48l1.124-0.193v-2.593l-3.09-5.38l-0.828-0.131v-0.876h3.462v0.876l-1.145,0.131
				l2.131,3.946l0.145,0.269l0.007-0.014l0.138-0.255l2.235-3.946l-1.187-0.131v-0.876h3.394v0.876l-0.876,0.131l-3.035,5.277v2.697
				l1.124,0.193v0.869H301.884z"/>
			<path fill="#C67B22" d="M310.261,56.349V55.48l0.745-0.104l3.51-9.07h1.166l3.449,9.07l0.738,0.104v0.869h-2.883V55.48
				l0.759-0.131l-0.662-1.849h-4.022l-0.682,1.849l0.759,0.131v0.869H310.261z M313.482,52.362h3.186l-1.476-4.084l-0.082-0.227
				h-0.041l-0.083,0.227L313.482,52.362z"/>
			<path fill="#C67B22" d="M323.749,56.349V55.48l1.124-0.193v-7.911l-1.124-0.193v-0.876h1.124h1.373l4.924,7.829l0.041-0.014
				v-6.746l-1.235-0.193v-0.876h2.483h1.124v0.876l-1.124,0.193v8.974h-1.242l-5.056-7.87l-0.041,0.014v6.794l1.234,0.193v0.869
				H323.749z"/>
			<path fill="#C67B22" d="M337.542,56.349V55.48l1.124-0.193v-7.911l-1.124-0.193v-0.876h3.608v0.876l-1.124,0.193v7.911
				l1.124,0.193v0.869H337.542z"/>
		</g>
	</g>
	<path fill="#C67B22" d="M404.244,85.159c-1.266-9.669-5.472-18.727-12.159-25.983c-8.055-8.74-18.99-14.123-30.784-15.151
		l-4.707-0.411l-0.853-4.647c-0.451-2.453-1.51-4.691-2.992-6.677c-1.482-1.987-3.384-3.726-5.537-5.201
		c-4.308-2.948-9.624-4.853-14.707-5.524c-2.413-0.318-4.954-0.472-7.762-0.471c-5.193,0-10.399,0.519-15.884,1.065
		c-4.642,0.462-9.423,0.937-14.23,1.083c-0.849,0.026-1.702,0.04-2.556,0.04l-0.586-0.021v0.014
		c-4.719-0.038-8.936-0.532-12.693-1.497c-3.911-1.005-7.331-2.513-10.33-4.537c-1.088-0.733-2.123-1.562-3.094-2.472l-0.135-0.126
		l-0.394-0.369l-0.529,0.496c-0.97,0.909-2.006,1.738-3.093,2.471c-3.001,2.024-6.42,3.532-10.332,4.537
		c-3.912,1.005-8.315,1.505-13.271,1.505c-0.857,0-1.712-0.014-2.563-0.04c-4.806-0.146-9.589-0.621-14.23-1.083
		c-5.486-0.545-10.692-1.064-15.885-1.065v0l-0.001,0c-2.808,0-5.349,0.154-7.762,0.472c-5.083,0.671-10.399,2.576-14.707,5.524
		c-2.153,1.474-4.055,3.214-5.537,5.201c-1.481,1.986-2.541,4.224-2.991,6.677l-0.854,4.647l-4.707,0.411
		c-11.794,1.028-22.729,6.411-30.784,15.151c-6.687,7.255-10.894,16.313-12.159,25.983l-0.085,0.651l0.415-0.971
		c1.233-9.336,6.507-17.606,12.966-24.615c7.797-8.459,18.371-13.663,29.781-14.658l5.881-0.513l1.067-5.806
		c0.402-2.19,1.35-4.207,2.711-6.033c1.36-1.825,3.133-3.454,5.171-4.849c4.071-2.791,9.19-4.631,14.035-5.267
		c2.337-0.308,4.809-0.458,7.561-0.458h0.003c5.088,0,10.243,0.511,15.728,1.057c4.642,0.462,9.459,0.942,14.336,1.09
		c0.866,0.026,1.736,0.041,2.61,0.041l0.006,0v0c5.056,0,9.59-0.51,13.651-1.554c4.062-1.043,7.653-2.622,10.811-4.752
		c0.964-0.65,1.882-1.374,2.757-2.152c0.875,0.778,1.793,1.503,2.758,2.153c3.157,2.13,6.746,3.708,10.807,4.751
		c4.054,1.042,8.578,1.551,13.624,1.554l0.006,0h0.031c0.874,0,1.745-0.014,2.611-0.041c4.876-0.148,9.694-0.628,14.336-1.09
		c5.484-0.546,10.64-1.057,15.728-1.057h0.003c2.752,0,5.223,0.15,7.56,0.458c4.845,0.636,9.964,2.476,14.035,5.267
		c2.037,1.395,3.811,3.024,5.171,4.849c1.361,1.825,2.309,3.843,2.711,6.032l1.066,5.806l5.881,0.513
		c11.411,0.995,21.984,6.199,29.782,14.658c6.459,7.009,11.604,15.008,12.837,24.344l0.066,0.501l0.478,0.74L404.244,85.159z"/>
	<g>
		<path d="M148.614,212.05c-13.079-1.895-17.818-18.766-22.367-35.257c-2.464-8.909-5.118-17.628-10.046-23.504
			c9.478-3.981,19.335-15.544,19.335-28.812c0-5.497-1.706-11.183-5.686-16.68c-12.131-16.87-48.526-36.963-50.042-67.102
			l-1.895-0.948c-2.465,4.928-4.36,14.406-4.36,24.642c0,8.53,1.327,17.439,4.55,24.263c7.961,16.87,32.792,27.675,38.1,41.323
			c0.758,1.895,1.137,4.17,1.137,6.445c0,4.36-1.517,8.909-5.308,12.889c-3.223-2.274-7.013-3.412-11.942-3.412
			c-2.653,0-5.686,0.379-9.098,1.137v-33.361L73.551,95.854v71.651c0,19.334-21.04,21.609-28.622,21.041
			c-16.871-0.758-28.054-11.942-28.054-27.106c0-3.222,0.569-6.445,1.517-9.857l-3.033-0.948c-3.033,5.876-4.36,12.131-4.36,18.197
			c0,19.145,14.027,36.583,35.636,37.342c18.197,0.569,44.355-16.302,44.355-50.611v-3.412c10.994,0.758,9.288,17.06,17.818,37.721
			c12.321,31.087,31.087,31.845,39.806,31.087c8.909-0.948,14.785-5.118,18.007-10.046l-2.843-2.275
			C158.66,213.187,151.457,212.619,148.614,212.05z"/>
		<polygon points="251.162,84.102 240.168,73.108 229.364,84.102 240.168,94.906 		"/>
		<polygon points="297.792,84.102 286.609,73.108 275.805,84.102 286.609,94.906 		"/>
		<path d="M344.801,170.348l-5.497,4.17c-7.013,0.568-9.287-8.719-9.287-21.609v-50.611l-17.06,11.752v40.943
			c0,4.808,0.356,9.204,1.118,13.175l-0.739-1.043l-9.668,7.393c-7.013,0.568-9.288-8.719-9.288-21.609v-50.611l-17.06,11.373
			v41.322c0,5.077,0.396,9.695,1.25,13.837h-2.388c-1.137,5.687-6.444,9.478-8.719,10.615c-10.615,5.307-24.831-8.909-33.93-11.373
			c9.667-12.51,26.158-34.688,30.517-40.185l-8.529-21.23h-36.394l-7.393,15.354h36.016c-5.409,6.884-24.135,32.611-35.601,46.68
			l-7.619,5.826c-6.824,0.568-9.099-7.582-9.478-19.524v-35.825h-9.099c3.033-2.464,5.686-5.118,7.393-8.34
			c2.085-4.17,3.033-9.288,3.033-14.027c0-4.549-0.948-8.53-2.654-10.615l-2.085,0.569c-1.326,20.093-46.629,25.589-46.629,62.552
			v8.53c0,17.629,9.477,28.433,18.576,32.603l17.06-15.543c2.844,7.203,7.583,12.321,14.406,15.543l15.307-12.952l0.238,0.252
			c3.412-3.222,13.838,4.739,16.681,6.824c10.236,6.445,18.576,8.53,25.4,8.53c9.667,0,16.112-4.549,19.523-7.772
			c4.534-4.081,6.533-8.883,7.159-13.256c2.439,8.558,7.2,14.766,15.019,18.374l20.836-17.63c2.5,8.174,7.209,14.127,14.8,17.63
			l14.785-12.7v20.472c-1.137,16.491-5.118,30.139-11.942,33.551c-1.706,0.758-5.118,2.085-8.909,2.085
			c-3.033,0-6.066-0.758-9.099-3.223l-1.895,0.569c3.411,5.876,10.994,10.426,22.178,8.53c8.151-1.706,24.073-10.615,26.727-41.512
			v-95.914l-17.06,11.752V170.348z M171.739,173.381c-5.876-0.19-8.719-5.876-9.288-15.544v-9.099
			c0-11.373,7.393-17.818,14.975-23.315v29.57c0,4.739,0.379,9.099,1.137,13.079L171.739,173.381z"/>
		<path d="M483.319,141.311l-3.196,0.799c0.999,3.396,1.398,6.792,1.398,9.988c0,15.981-12.385,27.367-29.365,28.966
			c-7.991,0.599-30.164,1.199-30.164-19.177v-46.744h-9.589c3.396-2.597,6.193-5.394,7.991-8.989
			c2.197-4.395,3.196-9.788,3.196-14.783c0-4.794-0.999-8.989-2.797-11.187l-2.197,0.599c-1.398,21.175-49.141,26.968-49.141,65.921
			v8.989c0,18.578,9.988,29.964,19.576,34.359l18.977-17.18c8.59,18.578,27.767,25.17,42.35,24.771
			c22.772-0.799,37.555-17.978,37.555-37.555C487.913,153.895,486.515,147.503,483.319,141.311z M397.621,172.074
			c-6.192-0.2-9.189-6.193-9.788-16.381v-9.389c0-11.985,7.591-18.778,15.781-24.77V150.3c0,5.993,0.6,11.187,1.998,15.781
			L397.621,172.074z"/>
	</g>
	
		<line fill="none" stroke="#C67B22" stroke-width="0.75" stroke-miterlimit="10" x1="236.046" y1="61.762" x2="298.466" y2="61.762"/>
</g>
</svg>
