<svg width="825" height="243" viewBox="0 0 825 243" fill="none" xmlns="http://www.w3.org/2000/svg">
<path d="M356.591 29.97C355.044 26.876 352.606 24.316 349.591 22.62C346.396 20.92 342.819 20.066 339.201 20.14C335.163 20.068 331.179 21.076 327.661 23.06C324.291 24.995 321.547 27.854 319.751 31.3C317.788 35.115 316.809 39.36 316.901 43.65C316.814 47.958 317.793 52.221 319.751 56.06C321.537 59.523 324.283 62.398 327.661 64.34C331.175 66.313 335.151 67.314 339.181 67.24C344.981 67.24 349.691 65.62 353.311 62.38C357.041 58.921 359.401 54.236 359.961 49.18H335.521V40.66H371.371V48.99C370.338 56.771 366.493 63.905 360.56 69.045C354.628 74.185 347.02 76.975 339.171 76.89C333.309 76.955 327.531 75.486 322.411 72.63C317.414 69.837 313.267 65.742 310.411 60.78C307.493 55.542 305.962 49.646 305.962 43.65C305.962 37.654 307.493 31.758 310.411 26.52C313.293 21.541 317.48 17.443 322.521 14.67C327.955 11.738 334.06 10.273 340.232 10.42C346.405 10.567 352.433 12.322 357.721 15.51C363.118 18.91 367.247 23.991 369.471 29.97H356.591Z" fill="white"/>
<path d="M399.701 72.7101C394.666 69.9221 390.488 65.8111 387.621 60.8201C384.709 55.5711 383.181 49.6671 383.181 43.6651C383.181 37.6621 384.709 31.7591 387.621 26.5101C390.499 21.5401 394.675 17.4482 399.701 14.6702C404.845 11.8752 410.607 10.4102 416.461 10.4102C422.316 10.4102 428.077 11.8752 433.221 14.6702C438.226 17.4482 442.376 21.5431 445.221 26.5101C448.102 31.7691 449.612 37.6691 449.612 43.6651C449.612 49.6611 448.102 55.5611 445.221 60.8201C442.386 65.8081 438.235 69.9211 433.221 72.7101C428.077 75.5051 422.316 76.9702 416.461 76.9702C410.607 76.9702 404.845 75.5051 399.701 72.7101ZM427.931 64.7101C431.323 62.7221 434.069 59.7991 435.841 56.2901C437.717 52.3321 438.691 48.0062 438.691 43.6252C438.691 39.2442 437.717 34.9181 435.841 30.9601C434.063 27.4781 431.316 24.5852 427.931 22.6302C424.395 20.7312 420.444 19.7381 416.431 19.7381C412.418 19.7381 408.467 20.7312 404.931 22.6302C401.543 24.5852 398.793 27.4781 397.011 30.9601C395.135 34.9181 394.162 39.2442 394.162 43.6252C394.162 48.0062 395.135 52.3321 397.011 56.2901C398.787 59.8001 401.537 62.7231 404.931 64.7101C408.457 66.6401 412.412 67.6521 416.431 67.6521C420.45 67.6521 424.405 66.6401 427.931 64.7101Z" fill="white"/>
<path d="M503.851 74.6801C500.557 73.3111 497.705 71.0581 495.611 68.1701C493.589 65.2971 492.538 61.8531 492.611 58.3401H504.031C504.201 60.9921 505.391 63.4751 507.351 65.2701C509.351 67.0831 512.114 67.9871 515.641 67.9801C519.321 67.9801 522.191 67.0901 524.251 65.3101C525.251 64.4701 526.049 63.4161 526.584 62.2241C527.119 61.0331 527.378 59.7361 527.341 58.4301C527.422 56.4711 526.733 54.5571 525.421 53.1001C524.088 51.6901 522.454 50.6001 520.641 49.9101C518.051 48.9561 515.41 48.1451 512.731 47.4801C509.207 46.5991 505.754 45.4561 502.401 44.0601C499.713 42.8801 497.375 41.0271 495.611 38.6801C493.744 36.2471 492.808 33.0001 492.801 28.9401C492.728 25.4551 493.708 22.0301 495.611 19.1101C497.555 16.2461 500.284 14.0031 503.471 12.6501C507.175 11.0941 511.164 10.3311 515.181 10.4101C521.481 10.4101 526.644 11.9871 530.671 15.1401C532.663 16.6921 534.294 18.6591 535.45 20.9031C536.607 23.1481 537.262 25.6171 537.371 28.1401H525.571C525.467 26.9471 525.113 25.7891 524.533 24.7421C523.952 23.6941 523.158 22.7811 522.201 22.0601C519.868 20.2811 516.981 19.3851 514.051 19.5301C511.358 19.4151 508.709 20.2421 506.561 21.8701C505.585 22.6901 504.815 23.7261 504.312 24.8961C503.808 26.0661 503.585 27.3381 503.661 28.6101C503.626 29.5091 503.77 30.4061 504.084 31.2481C504.398 32.0911 504.876 32.8631 505.491 33.5201C506.793 34.8621 508.373 35.9041 510.121 36.5701C512.633 37.5241 515.197 38.3351 517.801 39.0001C521.388 39.9451 524.906 41.1341 528.331 42.5601C531.07 43.7661 533.456 45.6521 535.261 48.0401C537.161 50.5001 538.114 53.7901 538.121 57.9101C538.117 61.2171 537.192 64.4581 535.451 67.2701C533.567 70.3021 530.877 72.7501 527.681 74.3401C523.956 76.1891 519.838 77.1061 515.681 77.0101C511.618 77.0661 507.589 76.2721 503.851 74.6801Z" fill="white"/>
<path d="M568.591 72.7101C563.557 69.9231 559.383 65.8111 556.521 60.8201C553.603 55.5731 552.071 49.6691 552.071 43.6651C552.071 37.6611 553.603 31.7571 556.521 26.5101C559.396 21.5381 563.573 17.4452 568.601 14.6702C573.743 11.8752 579.503 10.4102 585.356 10.4102C591.209 10.4102 596.969 11.8752 602.111 14.6702C607.12 17.4422 611.272 21.5381 614.111 26.5101C616.998 31.7671 618.511 37.6681 618.511 43.6651C618.511 49.6631 616.998 55.5631 614.111 60.8201C611.282 65.8131 607.13 69.9271 602.111 72.7101C596.969 75.5061 591.209 76.9702 585.356 76.9702C579.503 76.9702 573.743 75.5061 568.601 72.7101H568.591ZM596.811 64.7101C600.205 62.7251 602.952 59.8011 604.721 56.2901C606.604 52.3341 607.581 48.0072 607.581 43.6252C607.581 39.2432 606.604 34.9171 604.721 30.9601C602.946 27.4761 600.198 24.5832 596.811 22.6302C593.275 20.7322 589.324 19.7381 585.311 19.7381C581.298 19.7381 577.347 20.7322 573.811 22.6302C570.426 24.5852 567.679 27.4781 565.901 30.9601C564.025 34.9191 563.052 39.2442 563.052 43.6252C563.052 48.0062 564.025 52.3321 565.901 56.2901C567.673 59.7991 570.42 62.7221 573.811 64.7101C577.337 66.6401 581.292 67.6521 585.311 67.6521C589.33 67.6521 593.285 66.6401 596.811 64.7101Z" fill="white"/>
<path d="M634.771 26.51C637.649 21.54 641.825 17.448 646.851 14.67C652.285 11.738 658.39 10.273 664.562 10.42C670.735 10.567 676.763 12.322 682.051 15.51C687.452 18.906 691.582 23.989 693.801 29.97H680.971C679.489 26.75 677.043 24.07 673.971 22.3C670.77 20.554 667.166 19.681 663.521 19.77C659.495 19.701 655.523 20.702 652.011 22.67C648.624 24.623 645.876 27.516 644.101 31C642.218 34.948 641.241 39.266 641.241 43.64C641.241 48.014 642.218 52.332 644.101 56.28C645.883 59.771 648.628 62.68 652.011 64.66C655.507 66.679 659.484 67.716 663.521 67.66C667.166 67.724 670.763 66.827 673.951 65.06C677.023 63.29 679.469 60.61 680.951 57.39H693.781C691.567 63.361 687.435 68.43 682.031 71.8C676.473 75.226 670.049 76.989 663.521 76.88C657.659 76.945 651.881 75.476 646.761 72.62C641.768 69.821 637.622 65.727 634.761 60.77C631.849 55.53 630.32 49.635 630.32 43.64C630.32 37.645 631.849 31.75 634.761 26.51H634.771Z" fill="white"/>
<path d="M721.791 11.25V76.32H711.121V11.25H721.791Z" fill="white"/>
<path d="M753.671 72.7101C748.636 69.9221 744.458 65.8111 741.591 60.8201C738.679 55.5711 737.151 49.6671 737.151 43.6651C737.151 37.6621 738.679 31.7591 741.591 26.5101C744.469 21.5401 748.645 17.4482 753.671 14.6702C758.815 11.8752 764.577 10.4102 770.431 10.4102C776.286 10.4102 782.047 11.8752 787.191 14.6702C792.199 17.4442 796.35 21.5401 799.191 26.5101C802.078 31.7671 803.591 37.6671 803.591 43.6651C803.591 49.6621 802.078 55.5631 799.191 60.8201C796.36 65.8111 792.208 69.9251 787.191 72.7101C782.047 75.5051 776.286 76.9702 770.431 76.9702C764.577 76.9702 758.815 75.5051 753.671 72.7101ZM781.901 64.7101C785.293 62.7221 788.039 59.7991 789.811 56.2901C791.687 52.3321 792.661 48.0062 792.661 43.6252C792.661 39.2442 791.687 34.9181 789.811 30.9601C788.033 27.4781 785.286 24.5852 781.901 22.6302C778.365 20.7312 774.414 19.7381 770.401 19.7381C766.388 19.7381 762.437 20.7312 758.901 22.6302C755.511 24.5822 752.76 27.4761 750.981 30.9601C749.105 34.9181 748.132 39.2442 748.132 43.6252C748.132 48.0062 749.105 52.3321 750.981 56.2901C752.754 59.8021 755.504 62.7261 758.901 64.7101C762.427 66.6401 766.382 67.6521 770.401 67.6521C774.421 67.6521 778.375 66.6401 781.901 64.7101Z" fill="white"/>
<path d="M353.221 140.72C355.388 143.432 356.656 146.752 356.849 150.218C357.043 153.683 356.152 157.124 354.301 160.06C352.462 162.813 349.878 164.988 346.851 166.33C343.295 167.927 339.428 168.713 335.531 168.63H309.521V103.55H334.331C338.257 103.447 342.157 104.216 345.751 105.8C348.678 107.07 351.18 109.152 352.961 111.8C354.581 114.325 355.426 117.27 355.391 120.27C355.506 123.643 354.446 126.952 352.391 129.63C350.29 132.201 347.497 134.117 344.341 135.15C347.895 135.826 351.065 137.814 353.221 140.72ZM320.171 130.89H333.371C336.871 130.89 339.601 130.093 341.561 128.5C342.555 127.663 343.34 126.605 343.852 125.41C344.365 124.215 344.59 122.917 344.511 121.62C344.578 120.324 344.347 119.03 343.835 117.837C343.324 116.645 342.546 115.585 341.561 114.74C339.561 113.08 336.871 112.26 333.371 112.26H320.171V130.89ZM343.111 157.29C344.147 156.386 344.964 155.258 345.499 153.991C346.034 152.725 346.274 151.353 346.201 149.98C346.262 148.551 345.999 147.126 345.431 145.814C344.863 144.501 344.005 143.334 342.921 142.4C340.457 140.433 337.36 139.433 334.211 139.59H320.211V159.91H334.631C338.224 159.91 341.051 159.037 343.111 157.29Z" fill="white"/>
<path d="M383.931 103.55V145.06C383.931 149.993 385.224 153.707 387.811 156.2C390.398 158.693 394.001 159.943 398.621 159.95C403.288 159.95 406.924 158.7 409.531 156.2C412.138 153.7 413.434 149.987 413.421 145.06V103.55H424.091V144.84C424.239 149.572 423.035 154.248 420.621 158.32C418.41 161.916 415.19 164.782 411.361 166.56C407.334 168.402 402.949 169.328 398.521 169.27C394.112 169.33 389.746 168.404 385.741 166.56C381.945 164.788 378.768 161.917 376.621 158.32C374.264 154.228 373.094 149.56 373.241 144.84V103.55H383.931Z" fill="white"/>
<path d="M484.841 103.55V112.26H467.521V168.62H456.851V112.26H439.441V103.55H484.841Z" fill="white"/>
<path d="M542.521 103.55V112.26H525.191V168.62H514.521V112.26H497.111V103.55H542.521Z" fill="white"/>
<path d="M568.821 112.16V131.26H591.291V139.97H568.821V159.91H594.101V168.62H558.101V103.46H594.101V112.16H568.821Z" fill="white"/>
<path d="M645.871 168.62L630.871 142.62H622.721V168.62H612.071V103.55H634.521C638.894 103.421 643.237 104.318 647.201 106.17C650.422 107.69 653.124 110.124 654.971 113.17C656.703 116.153 657.595 119.55 657.551 123C657.58 127.149 656.283 131.199 653.851 134.56C651.391 138.033 647.601 140.39 642.481 141.63L658.581 168.63L645.871 168.62ZM622.741 134.06H634.521C638.521 134.06 641.521 133.06 643.521 131.06C644.558 130.01 645.369 128.758 645.902 127.382C646.435 126.006 646.68 124.535 646.621 123.06C646.702 121.605 646.478 120.149 645.961 118.787C645.444 117.424 644.647 116.185 643.621 115.15C641.621 113.25 638.594 112.3 634.541 112.3H622.741V134.06Z" fill="white"/>
<path d="M714.391 103.55V112.26H686.781V131.45H708.311V140.16H686.781V168.62H676.101V103.55H714.391Z" fill="white"/>
<path d="M739.861 160H761.861V168.62H729.191V103.55H739.861V160Z" fill="white"/>
<path d="M823.831 103.55L802.301 145.06V168.66H791.631V145.06L770.001 103.59H781.891L796.971 135.51L812.041 103.59L823.831 103.55Z" fill="white"/>
<path d="M327.231 216.78C328.436 218.196 329.086 220.001 329.061 221.86C329.079 223.363 328.67 224.84 327.881 226.12C327.041 227.432 325.839 228.474 324.421 229.12C322.712 229.884 320.853 230.257 318.981 230.21H308.201V199.06H318.671C321.824 199.06 324.224 199.79 325.871 201.25C326.678 201.95 327.318 202.822 327.746 203.801C328.173 204.78 328.376 205.842 328.341 206.91C328.418 208.615 327.862 210.289 326.781 211.61C325.723 212.824 324.332 213.7 322.781 214.13C324.532 214.457 326.109 215.396 327.231 216.78ZM311.321 212.78H318.581C320.335 212.898 322.072 212.367 323.461 211.29C324.038 210.776 324.493 210.139 324.791 209.426C325.088 208.713 325.222 207.942 325.181 207.17C325.219 206.407 325.084 205.646 324.786 204.943C324.489 204.24 324.035 203.613 323.461 203.11C322.024 202.037 320.25 201.516 318.461 201.64H311.321V212.78ZM324.041 225.93C324.673 225.388 325.172 224.709 325.502 223.945C325.831 223.181 325.981 222.351 325.941 221.52C325.971 220.67 325.806 219.825 325.46 219.048C325.113 218.272 324.594 217.585 323.941 217.04C322.425 215.863 320.537 215.271 318.621 215.37H311.321V227.54H318.761C320.653 227.663 322.527 227.103 324.041 225.96V225.93Z" fill="white"/>
<path d="M343.391 206.66C344.978 205.787 346.771 205.359 348.581 205.42V208.67H347.731C345.752 208.573 343.809 209.227 342.291 210.5C340.931 211.72 340.291 213.75 340.291 216.6V230.2H337.121V205.86H340.241V210.19C340.896 208.713 341.998 207.478 343.391 206.66Z" fill="white"/>
<path d="M355.641 211.41C356.582 209.589 358.021 208.073 359.791 207.04C361.619 206.003 363.69 205.475 365.791 205.51C367.904 205.452 369.988 206.008 371.791 207.11C373.382 208.086 374.645 209.513 375.421 211.21V205.86H378.521V230.2H375.401V224.8C374.598 226.502 373.32 227.936 371.721 228.93C369.923 230.045 367.837 230.608 365.721 230.55C363.616 230.593 361.539 230.053 359.721 228.99C357.947 227.944 356.507 226.414 355.571 224.58C354.59 222.523 354.082 220.273 354.082 217.995C354.082 215.716 354.59 213.467 355.571 211.41H355.641ZM374.211 212.86C373.461 211.432 372.324 210.243 370.931 209.43C369.545 208.621 367.966 208.203 366.361 208.22C364.743 208.195 363.146 208.595 361.731 209.38C360.35 210.169 359.225 211.339 358.491 212.75C357.671 214.372 357.265 216.173 357.311 217.99C357.274 219.803 357.679 221.598 358.491 223.22C359.215 224.654 360.341 225.845 361.731 226.65C363.14 227.453 364.739 227.864 366.361 227.84C367.966 227.857 369.545 227.439 370.931 226.63C372.324 225.816 373.461 224.628 374.211 223.2C375 221.591 375.411 219.822 375.411 218.03C375.411 216.238 375 214.469 374.211 212.86Z" fill="white"/>
<path d="M406.521 208.11C408.361 209.91 409.281 212.52 409.281 215.94V230.2H406.211V216.29C406.361 214.086 405.643 211.912 404.211 210.23C403.508 209.519 402.663 208.965 401.73 208.605C400.798 208.245 399.799 208.086 398.801 208.14C397.761 208.092 396.722 208.265 395.753 208.648C394.784 209.03 393.908 209.614 393.181 210.36C391.781 211.85 391.091 214.03 391.091 216.92V230.2H387.971V205.86H391.091V210.06C391.824 208.605 392.991 207.413 394.431 206.65C395.97 205.838 397.691 205.432 399.431 205.47C400.729 205.416 402.025 205.622 403.242 206.075C404.46 206.528 405.574 207.22 406.521 208.11Z" fill="white"/>
<path d="M418.601 211.41C419.552 209.59 420.997 208.075 422.771 207.04C424.598 206.002 426.67 205.473 428.771 205.51C430.794 205.488 432.783 206.024 434.521 207.06C436.159 208.003 437.479 209.413 438.311 211.11V197.21H441.431V230.21H438.311V224.76C437.539 226.484 436.268 227.937 434.661 228.93C432.861 230.042 430.776 230.605 428.661 230.55C426.556 230.588 424.481 230.048 422.661 228.99C420.887 227.946 419.45 226.416 418.521 224.58C417.49 222.539 416.975 220.276 417.021 217.99C416.991 215.699 417.534 213.437 418.601 211.41ZM437.141 212.86C436.396 211.428 435.258 210.238 433.861 209.43C432.479 208.621 430.902 208.203 429.301 208.22C427.679 208.195 426.08 208.595 424.661 209.38C423.283 210.17 422.162 211.34 421.431 212.75C420.607 214.371 420.201 216.172 420.251 217.99C420.209 219.804 420.614 221.6 421.431 223.22C422.151 224.653 423.274 225.845 424.661 226.65C426.074 227.454 427.676 227.865 429.301 227.84C430.902 227.857 432.479 227.439 433.861 226.63C435.258 225.822 436.396 224.632 437.141 223.2C437.93 221.591 438.341 219.822 438.341 218.03C438.341 216.238 437.93 214.469 437.141 212.86Z" fill="white"/>
<path d="M450.871 200.6C450.651 200.387 450.478 200.13 450.362 199.846C450.247 199.562 450.192 199.257 450.201 198.95C450.192 198.648 450.247 198.348 450.362 198.068C450.478 197.789 450.651 197.538 450.871 197.33C451.081 197.12 451.33 196.955 451.605 196.843C451.88 196.732 452.174 196.676 452.471 196.68C452.769 196.676 453.065 196.731 453.341 196.843C453.618 196.954 453.869 197.12 454.081 197.33C454.297 197.54 454.468 197.792 454.581 198.071C454.695 198.35 454.749 198.649 454.741 198.95C454.749 199.256 454.695 199.56 454.582 199.843C454.468 200.127 454.298 200.385 454.081 200.6C453.873 200.817 453.623 200.988 453.346 201.103C453.069 201.218 452.771 201.275 452.471 201.27C452.172 201.275 451.876 201.218 451.601 201.103C451.325 200.987 451.077 200.816 450.871 200.6ZM454.031 205.86V230.2H450.911V205.86H454.031Z" fill="white"/>
<path d="M481.981 208.11C483.821 209.91 484.741 212.52 484.741 215.94V230.2H481.671V216.29C481.816 214.087 481.098 211.914 479.671 210.23C478.968 209.52 478.122 208.966 477.19 208.606C476.257 208.245 475.259 208.087 474.261 208.14C473.22 208.092 472.182 208.265 471.213 208.648C470.244 209.03 469.368 209.614 468.641 210.36C467.241 211.85 466.551 214.03 466.551 216.92V230.2H463.421V205.86H466.521V210.06C467.254 208.605 468.421 207.413 469.861 206.65C471.399 205.836 473.121 205.429 474.861 205.47C476.164 205.412 477.465 205.616 478.688 206.069C479.911 206.523 481.031 207.217 481.981 208.11Z" fill="white"/>
<path d="M510.141 207.11C511.74 208.066 513.015 209.481 513.801 211.17V205.86H516.921V230.86C516.963 232.929 516.463 234.974 515.471 236.79C514.55 238.481 513.162 239.869 511.471 240.79C509.656 241.743 507.631 242.224 505.581 242.19C502.819 242.296 500.096 241.514 497.811 239.96C495.775 238.529 494.388 236.35 493.951 233.9H497.031C497.528 235.561 498.589 236.997 500.031 237.96C501.669 239.008 503.587 239.535 505.531 239.47C507.006 239.496 508.464 239.153 509.771 238.47C511.029 237.786 512.052 236.741 512.711 235.47C513.451 234.038 513.819 232.442 513.781 230.83V224.83C512.978 226.532 511.7 227.967 510.101 228.96C508.304 230.079 506.217 230.643 504.101 230.58C501.996 230.62 499.92 230.08 498.101 229.02C496.327 227.974 494.887 226.444 493.951 224.61C492.97 222.553 492.461 220.304 492.461 218.025C492.461 215.746 492.97 213.497 493.951 211.44C494.892 209.619 496.331 208.103 498.101 207.07C499.928 206.033 502 205.505 504.101 205.54C506.224 205.465 508.323 206.01 510.141 207.11ZM512.601 212.86C511.851 211.432 510.714 210.243 509.321 209.43C507.936 208.62 506.356 208.201 504.751 208.22C503.133 208.195 501.536 208.595 500.121 209.38C498.74 210.169 497.615 211.339 496.881 212.75C496.061 214.372 495.655 216.173 495.701 217.99C495.664 219.803 496.069 221.598 496.881 223.22C497.605 224.654 498.731 225.846 500.121 226.65C501.53 227.454 503.129 227.865 504.751 227.84C506.356 227.859 507.936 227.44 509.321 226.63C510.714 225.817 511.851 224.628 512.601 223.2C513.39 221.591 513.801 219.822 513.801 218.03C513.801 216.238 513.39 214.469 512.601 212.86Z" fill="white"/>
<path d="M540.971 211.41C541.905 209.587 543.342 208.071 545.111 207.04C546.939 206.005 549.01 205.477 551.111 205.51C553.224 205.451 555.308 206.007 557.111 207.11C558.704 208.083 559.968 209.511 560.741 211.21V205.86H563.861V230.2H560.741V224.8C559.938 226.502 558.66 227.937 557.061 228.93C555.263 230.046 553.176 230.61 551.061 230.55C548.972 230.584 546.914 230.044 545.111 228.99C543.337 227.947 541.9 226.416 540.971 224.58C539.983 222.525 539.47 220.275 539.47 217.995C539.47 215.715 539.983 213.465 540.971 211.41ZM559.521 212.86C558.774 211.43 557.636 210.24 556.241 209.43C554.855 208.62 553.276 208.201 551.671 208.22C550.053 208.195 548.456 208.595 547.041 209.38C545.661 210.167 544.539 211.338 543.811 212.75C542.987 214.371 542.581 216.172 542.631 217.99C542.589 219.804 542.994 221.6 543.811 223.22C544.528 224.655 545.652 225.848 547.041 226.65C548.45 227.454 550.049 227.864 551.671 227.84C553.276 227.858 554.855 227.44 556.241 226.63C557.636 225.82 558.774 224.63 559.521 223.2C560.31 221.591 560.721 219.822 560.721 218.03C560.721 216.238 560.31 214.469 559.521 212.86Z" fill="white"/>
<path d="M591.841 208.11C593.688 209.91 594.611 212.52 594.611 215.94V230.2H591.521V216.29C591.666 214.087 590.948 211.914 589.521 210.23C588.816 209.519 587.969 208.965 587.035 208.604C586.101 208.244 585.101 208.086 584.101 208.14C583.067 208.095 582.035 208.27 581.073 208.652C580.111 209.035 579.242 209.617 578.521 210.36C577.121 211.85 576.421 214.03 576.421 216.92V230.2H573.301V205.86H576.421V210.06C577.158 208.604 578.328 207.412 579.771 206.65C581.291 205.845 582.991 205.439 584.711 205.47C586.016 205.411 587.319 205.614 588.544 206.067C589.768 206.521 590.89 207.215 591.841 208.11Z" fill="white"/>
<path d="M603.921 211.41C604.872 209.59 606.317 208.075 608.091 207.04C609.918 206.003 611.99 205.475 614.091 205.51C616.132 205.482 618.14 206.022 619.891 207.07C621.524 208.019 622.843 209.427 623.681 211.12V197.22H626.801V230.22H623.681V224.76C622.906 226.485 621.631 227.937 620.021 228.93C618.222 230.043 616.136 230.607 614.021 230.55C611.916 230.588 609.841 230.048 608.021 228.99C606.25 227.943 604.814 226.414 603.881 224.58C602.854 222.538 602.342 220.275 602.391 217.99C602.345 215.703 602.871 213.442 603.921 211.41ZM622.461 212.86C621.717 211.43 620.583 210.241 619.191 209.43C617.804 208.622 616.225 208.204 614.621 208.22C612.999 208.195 611.4 208.595 609.981 209.38C608.605 210.173 607.485 211.342 606.751 212.75C605.927 214.371 605.521 216.172 605.571 217.99C605.529 219.804 605.934 221.6 606.751 223.22C607.474 224.651 608.596 225.842 609.981 226.65C611.394 227.454 612.996 227.865 614.621 227.84C616.225 227.856 617.804 227.438 619.191 226.63C620.583 225.819 621.717 224.629 622.461 223.2C623.257 221.593 623.671 219.823 623.671 218.03C623.671 216.236 623.257 214.467 622.461 212.86Z" fill="white"/>
<path d="M657.521 207.11C659.322 206.003 661.408 205.446 663.521 205.51C665.623 205.469 667.696 205.997 669.521 207.04C671.283 208.077 672.715 209.593 673.651 211.41C674.632 213.467 675.141 215.717 675.141 217.995C675.141 220.274 674.632 222.523 673.651 224.58C672.715 226.414 671.275 227.944 669.501 228.99C667.683 230.053 665.607 230.593 663.501 230.55C661.391 230.61 659.308 230.062 657.501 228.97C655.89 227.996 654.608 226.561 653.821 224.85V230.2H650.741V197.2H653.821V211.2C654.638 209.511 655.922 208.092 657.521 207.11ZM670.711 212.75C669.983 211.338 668.861 210.167 667.481 209.38C666.066 208.595 664.469 208.195 662.851 208.22C661.246 208.202 659.666 208.62 658.281 209.43C656.888 210.244 655.751 211.432 655.001 212.86C654.212 214.469 653.801 216.238 653.801 218.03C653.801 219.822 654.212 221.591 655.001 223.2C655.751 224.628 656.888 225.817 658.281 226.63C659.666 227.44 661.246 227.859 662.851 227.84C664.473 227.865 666.072 227.454 667.481 226.65C668.87 225.848 669.994 224.655 670.711 223.22C671.528 221.6 671.933 219.804 671.891 217.99C671.953 216.176 671.561 214.375 670.751 212.75H670.711Z" fill="white"/>
<path d="M705.101 219.23H684.901C684.94 220.895 685.401 222.522 686.241 223.96C686.992 225.24 688.092 226.28 689.411 226.96C690.736 227.633 692.205 227.977 693.691 227.96C695.505 228.021 697.291 227.503 698.791 226.48C700.156 225.52 701.129 224.1 701.531 222.48H704.831C704.267 224.797 702.921 226.849 701.021 228.29C698.903 229.849 696.319 230.643 693.691 230.54C691.541 230.591 689.414 230.081 687.521 229.06C685.715 228.04 684.24 226.523 683.271 224.69C682.206 222.649 681.676 220.371 681.731 218.07C681.677 215.765 682.199 213.482 683.251 211.43C684.212 209.584 685.698 208.064 687.521 207.06C689.422 206.029 691.559 205.509 693.721 205.55C695.846 205.501 697.946 206.023 699.801 207.06C701.486 208.023 702.871 209.436 703.801 211.14C704.746 212.882 705.228 214.838 705.201 216.82C705.181 217.85 705.151 218.67 705.101 219.23ZM700.931 212.06C700.206 210.809 699.127 209.8 697.831 209.16C696.502 208.496 695.036 208.153 693.551 208.16C691.361 208.11 689.236 208.909 687.621 210.39C686.777 211.206 686.102 212.181 685.635 213.259C685.169 214.337 684.919 215.496 684.901 216.67H702.021C702.096 215.062 701.718 213.464 700.931 212.06Z" fill="white"/>
<path d="M733.261 205.86L718.821 241.65H715.571L720.291 230.06L710.291 205.86H713.721L722.011 226.63L730.011 205.86H733.261Z" fill="white"/>
<path d="M744.301 229.06C742.477 228.038 740.976 226.524 739.971 224.69C738.883 222.656 738.339 220.376 738.391 218.07C738.337 215.762 738.889 213.479 739.991 211.45C741.015 209.617 742.528 208.104 744.361 207.08C746.262 206.045 748.397 205.518 750.561 205.55C752.731 205.521 754.872 206.047 756.781 207.08C758.618 208.096 760.13 209.611 761.141 211.45C762.187 213.497 762.732 215.762 762.732 218.06C762.732 220.358 762.187 222.624 761.141 224.67C760.117 226.522 758.588 228.045 756.731 229.06C754.815 230.092 752.667 230.618 750.491 230.59C748.33 230.628 746.196 230.101 744.301 229.06ZM754.921 226.78C756.324 226.026 757.48 224.884 758.251 223.49C759.143 221.823 759.581 219.95 759.521 218.06C759.579 216.176 759.149 214.309 758.271 212.64C757.514 211.246 756.367 210.103 754.971 209.35C753.597 208.628 752.068 208.25 750.516 208.25C748.964 208.25 747.435 208.628 746.061 209.35C744.669 210.101 743.528 211.245 742.781 212.64C741.972 214.332 741.551 216.184 741.551 218.06C741.551 219.936 741.972 221.788 742.781 223.48C743.517 224.873 744.647 226.017 746.031 226.77C747.401 227.493 748.927 227.87 750.476 227.87C752.025 227.87 753.551 227.493 754.921 226.77V226.78Z" fill="white"/>
<path d="M789.291 208.11C791.131 209.91 792.051 212.52 792.051 215.94V230.2H788.981V216.29C789.131 214.086 788.413 211.911 786.981 210.23C786.278 209.519 785.433 208.965 784.5 208.605C783.568 208.244 782.569 208.086 781.571 208.14C780.531 208.092 779.492 208.265 778.523 208.647C777.554 209.03 776.678 209.614 775.951 210.36C774.561 211.85 773.861 214.03 773.861 216.92V230.2H770.741V205.86H773.861V210.06C774.594 208.605 775.761 207.413 777.201 206.65C778.725 205.846 780.428 205.44 782.151 205.47C783.457 205.409 784.762 205.612 785.989 206.065C787.216 206.519 788.338 207.214 789.291 208.11Z" fill="white"/>
<path d="M801.371 211.41C802.32 209.6 803.757 208.093 805.521 207.06C807.348 206.022 809.42 205.493 811.521 205.53C813.559 205.493 815.567 206.022 817.321 207.06C818.959 208.003 820.279 209.413 821.111 211.11V197.21H824.231V230.21H821.111V224.76C820.339 226.484 819.068 227.937 817.461 228.93C815.661 230.041 813.576 230.604 811.461 230.55C809.356 230.588 807.281 230.048 805.461 228.99C803.687 227.946 802.25 226.416 801.321 224.58C800.29 222.539 799.775 220.276 799.821 217.99C799.782 215.702 800.315 213.44 801.371 211.41ZM819.911 212.86C819.164 211.43 818.026 210.24 816.631 209.43C815.249 208.621 813.672 208.203 812.071 208.22C810.449 208.194 808.849 208.594 807.431 209.38C806.051 210.167 804.929 211.338 804.201 212.75C803.377 214.371 802.971 216.172 803.021 217.99C802.979 219.804 803.384 221.6 804.201 223.22C804.918 224.655 806.042 225.848 807.431 226.65C808.843 227.455 810.446 227.866 812.071 227.84C813.672 227.857 815.249 227.439 816.631 226.63C818.026 225.819 819.164 224.63 819.911 223.2C820.7 221.591 821.111 219.822 821.111 218.03C821.111 216.238 820.7 214.469 819.911 212.86Z" fill="white"/>
<path d="M270.051 83.39V13.72C270.073 11.668 269.699 9.63102 268.951 7.72002C268.429 6.37802 267.674 5.13902 266.721 4.06002C265.457 2.64502 263.873 1.55102 262.101 0.870018C260.604 0.295018 259.015 2.30779e-05 257.411 2.30779e-05C256.399 -0.00197692 255.391 0.126028 254.411 0.380028C249.423 1.83403 244.577 3.73502 239.931 6.06002C229.52 11.256 219.413 17.042 209.661 23.39C193.731 33.52 177.521 45.06 165.161 54.06C152.801 63.06 144.521 69.63 144.521 69.65C143.591 70.301 142.784 71.114 142.141 72.05C141.288 73.296 140.693 74.7 140.391 76.18C140.184 77.143 140.08 78.125 140.081 79.11C140.081 79.4 140.081 79.63 140.081 79.81C140.081 80.19 140.081 81.28 140.081 82.95C140.081 90.32 140.191 108.85 140.261 126.44C140.331 144.03 140.391 160.68 140.391 164.22C140.265 167.503 140.732 170.783 141.771 173.9C142.129 174.873 142.631 175.787 143.261 176.61C143.714 177.187 144.258 177.687 144.871 178.09L226.241 230.69L226.691 230.88C228.657 231.725 230.771 232.174 232.911 232.2C234.138 232.201 235.36 232.032 236.541 231.7C238.367 231.186 240.068 230.305 241.541 229.11C243.252 227.721 244.69 226.025 245.781 224.11C246.177 223.418 246.531 222.704 246.841 221.97C246.971 221.65 247.081 221.35 247.181 221.04C247.231 220.89 247.281 220.74 247.321 220.57C247.382 220.363 247.429 220.153 247.461 219.94C248.201 215.398 248.672 210.817 248.871 206.22C249.141 201.22 249.241 195.73 249.241 190.17C249.241 175.95 248.591 160.9 248.361 150.17C248.304 147.357 247.822 144.569 246.931 141.9C245.501 137.729 243.208 133.906 240.201 130.68C237.106 127.344 233.538 124.48 229.611 122.18C232.611 120.18 236.151 117.82 239.841 115.32C244.541 112.13 249.441 108.77 253.581 105.81C255.651 104.33 257.531 102.96 259.131 101.74C259.921 101.14 260.651 100.57 261.301 100.04C261.951 99.51 262.511 99.04 263.031 98.55C265.545 96.277 267.525 93.477 268.831 90.35C269.624 88.423 270.045 86.363 270.071 84.28C270.078 83.94 270.071 83.643 270.051 83.39ZM234.051 139.96C235.144 141.444 236.026 143.073 236.671 144.8C237.332 146.605 237.69 148.508 237.731 150.43C237.961 161.32 238.611 176.25 238.611 190.17C238.611 195.61 238.511 200.88 238.251 205.66C238.074 209.74 237.667 213.806 237.031 217.84C236.9 218.185 236.743 218.519 236.561 218.84C236.123 219.626 235.543 220.324 234.851 220.9C234.571 221.124 234.257 221.303 233.921 221.43C233.603 221.556 233.263 221.617 232.921 221.61C232.315 221.594 231.716 221.472 231.151 221.25L152.631 170.48L219.521 128.92L220.601 129.43C222.446 130.328 224.23 131.347 225.941 132.48C229.061 134.484 231.808 137.015 234.061 139.96H234.051ZM258.961 86.44C258.235 88.112 257.149 89.604 255.781 90.81C255.531 91.05 255.111 91.41 254.581 91.81C253.581 92.62 252.201 93.67 250.581 94.87C247.731 96.97 244.121 99.5 240.341 102.11C234.661 106.03 228.571 110.11 223.901 113.22L218.201 117L216.591 118.06L216.011 118.44L213.771 119.91L151.021 158.87C151.021 150.39 150.941 134.32 150.871 118.87C150.791 98.74 150.711 79.63 150.711 79.63V79.14C150.707 78.832 150.748 78.526 150.831 78.23L151.031 78.07L151.251 77.91C153.471 76.18 172.881 61.17 195.371 45.67C206.611 37.92 218.631 30.05 229.591 23.67C235.071 20.49 240.291 17.67 244.981 15.45C248.875 13.522 252.93 11.939 257.101 10.72C257.204 10.712 257.308 10.712 257.411 10.72C257.67 10.723 257.926 10.767 258.171 10.85C258.322 10.895 258.464 10.966 258.591 11.06C258.795 11.2 258.952 11.399 259.041 11.63C259.323 12.314 259.449 13.051 259.411 13.79V84.06V84.29C259.402 85.028 259.253 85.758 258.971 86.44H258.961Z" fill="#EB4D37"/>
<path d="M127.891 72.0601C127.248 71.1241 126.441 70.3111 125.511 69.6601C125.511 69.6601 117.141 63.1401 104.841 54.1101C92.5409 45.0801 76.2709 33.5301 60.3409 23.3701C50.5929 17.0281 40.4889 11.2481 30.0809 6.06007C25.4449 3.75607 20.6129 1.87206 15.6409 0.430062C14.6609 0.176062 13.6529 0.0480719 12.6409 0.0500719C11.0369 0.0500719 9.44791 0.345067 7.95091 0.920067C6.17891 1.60107 4.59492 2.69507 3.33092 4.11007C2.38492 5.16807 1.62992 6.38307 1.10092 7.70007C0.352923 9.61107 -0.0210829 11.6481 0.000917125 13.7001V83.3701C0.000917125 83.6231 0.000917125 83.9331 0.000917125 84.3001C0.0269171 86.3831 0.447923 88.4431 1.24092 90.3701C2.54692 93.4971 4.52693 96.2971 7.04093 98.5701C7.56093 99.0501 8.12092 99.5701 8.77092 100.06C9.42092 100.55 10.1509 101.16 10.9409 101.76C12.5409 102.98 14.4209 104.35 16.4909 105.83C20.6309 108.83 25.4909 112.15 30.2309 115.34C33.9209 117.84 37.4909 120.23 40.4609 122.2C36.5339 124.5 32.9659 127.364 29.8709 130.7C26.8639 133.926 24.5709 137.749 23.1409 141.92C22.2499 144.589 21.7679 147.377 21.7109 150.19C21.4809 160.88 20.8309 175.93 20.8309 190.19C20.8309 195.75 20.9309 201.19 21.2009 206.24C21.3709 210.829 21.8119 215.403 22.5209 219.94C22.5529 220.153 22.5999 220.363 22.6609 220.57C22.6609 220.74 22.7509 220.89 22.8009 221.04C22.9009 221.35 23.0109 221.65 23.1409 221.97C23.4509 222.704 23.8049 223.418 24.2009 224.11C25.2949 226.023 26.7319 227.718 28.4409 229.11C29.9149 230.303 31.6159 231.184 33.4409 231.7C34.6219 232.033 35.8439 232.201 37.0709 232.2C39.2109 232.174 41.3249 231.725 43.2909 230.88L43.7409 230.69L125.131 178.06C125.744 177.657 126.288 177.157 126.741 176.58C127.371 175.757 127.873 174.843 128.231 173.87C129.27 170.753 129.737 167.473 129.611 164.19C129.611 160.65 129.671 143.99 129.741 126.41C129.811 108.83 129.881 90.2901 129.911 82.9201C129.911 81.2501 129.911 80.1601 129.911 79.7801C129.911 79.6001 129.911 79.3701 129.911 79.0801C129.912 78.0951 129.808 77.1131 129.601 76.1501C129.307 74.6871 128.725 73.2971 127.891 72.0601ZM38.8909 221.22C38.3259 221.442 37.7269 221.564 37.1209 221.58C36.7789 221.582 36.4399 221.521 36.1209 221.4C35.7849 221.273 35.4709 221.094 35.1909 220.87C34.4989 220.294 33.9189 219.596 33.4809 218.81C33.2989 218.489 33.1419 218.155 33.0109 217.81C32.3749 213.776 31.9679 209.71 31.7909 205.63C31.5309 200.85 31.4409 195.58 31.4409 190.14C31.4409 176.22 32.0809 161.29 32.3109 150.4C32.3509 148.478 32.7099 146.575 33.3709 144.77C34.0159 143.043 34.8979 141.414 35.9909 139.93C38.2349 136.988 40.9719 134.457 44.0809 132.45C45.7919 131.317 47.5759 130.298 49.4209 129.4L50.5009 128.89L117.421 170.41L38.8909 221.22ZM119.341 79.2201V79.6301C119.341 79.6301 119.261 98.7401 119.171 118.87C119.111 134.35 119.051 150.42 119.031 158.87L56.2809 119.94L54.0409 118.47L53.4609 118.09L51.8009 117.06L46.1009 113.28C41.4309 110.18 35.3409 106.09 29.6609 102.17C25.8809 99.5601 22.2709 97.0301 19.4209 94.9301C17.8009 93.7301 16.4209 92.6801 15.4209 91.8701C14.8909 91.4401 14.4209 91.0801 14.2209 90.8701C12.8529 89.6641 11.7669 88.1721 11.0409 86.5001C10.7489 85.8301 10.5869 85.1111 10.5609 84.3801V84.1501V13.7201C10.5229 12.9821 10.6489 12.2441 10.9309 11.5601C11.0199 11.3291 11.1769 11.1301 11.3809 10.9901C11.5079 10.8961 11.6499 10.8251 11.8009 10.7801C12.0459 10.6971 12.3019 10.6531 12.5609 10.6501C12.6639 10.6421 12.7679 10.6421 12.8709 10.6501C17.0409 11.8691 21.0969 13.4521 24.9909 15.3801C29.6809 17.6001 34.9009 20.3801 40.3809 23.6001C51.3809 29.9801 63.3809 37.8501 74.6009 45.6001C97.0909 61.1001 116.501 76.1101 118.721 77.8401L118.941 78.0001L119.141 78.1601C119.224 78.4561 119.265 78.7621 119.261 79.0701L119.341 79.2201Z" fill="#EB4D37"/>
</svg>
